<svg xmlns="http://www.w3.org/2000/svg" xmlns:xlink="http://www.w3.org/1999/xlink" width="2000" zoomAndPan="magnify" viewBox="0 0 1500 1499.999933" height="2000" preserveAspectRatio="xMidYMid meet" version="1.0"><defs><g/><clipPath id="b8f79e295d"><rect x="0" width="720" y="0" height="822"/></clipPath><clipPath id="35cefb7661"><rect x="0" width="350" y="0" height="129"/></clipPath><clipPath id="61d52f2b72"><rect x="0" width="720" y="0" height="822"/></clipPath><clipPath id="5edd6ae998"><rect x="0" width="332" y="0" height="129"/></clipPath></defs><g transform="matrix(1, 0, 0, 1, 38, 339)"><g clip-path="url(#b8f79e295d)"><g fill="#ff751f" fill-opacity="1"><g transform="translate(1.13113, 352.329201)"><g><path d="M 294.28125 -328.546875 C 301.164062 -328.546875 307.582031 -327.296875 313.53125 -324.796875 C 319.476562 -322.296875 324.71875 -318.773438 329.25 -314.234375 C 333.789062 -309.703125 337.390625 -304.460938 340.046875 -298.515625 C 342.710938 -292.566406 344.046875 -286.148438 344.046875 -279.265625 L 344.046875 -230.453125 C 344.046875 -223.566406 341.304688 -218.398438 335.828125 -214.953125 C 330.347656 -211.515625 324.476562 -210.738281 318.21875 -212.625 L 190.5625 -248.765625 L 91.0625 -39.421875 L 198.53125 -225.765625 L 303.203125 -196.65625 C 314.160156 -193.53125 323.707031 -188.757812 331.84375 -182.34375 C 339.976562 -175.925781 344.046875 -167.085938 344.046875 -155.828125 L 344.046875 -102.796875 C 344.046875 -88.398438 341.304688 -74.941406 335.828125 -62.421875 C 330.347656 -49.910156 322.914062 -39.035156 313.53125 -29.796875 C 304.144531 -20.566406 293.113281 -13.289062 280.4375 -7.96875 C 267.769531 -2.65625 254.238281 0 239.84375 0 L 14.078125 0 L 14.078125 -248.296875 C 14.078125 -259.554688 15.875 -270.035156 19.46875 -279.734375 C 23.070312 -289.429688 28.316406 -297.878906 35.203125 -305.078125 C 42.085938 -312.273438 50.535156 -317.984375 60.546875 -322.203125 C 70.554688 -326.429688 81.820312 -328.546875 94.34375 -328.546875 Z M 294.28125 -328.546875 "/></g></g></g><g fill="#00bc7d" fill-opacity="1"><g transform="translate(359.260725, 352.329201)"><g><path d="M 345.453125 -328.546875 L 345.453125 0 L 47.40625 0 C 38.332031 0 30.507812 -3.207031 23.9375 -9.625 C 17.363281 -16.039062 14.078125 -23.941406 14.078125 -33.328125 L 14.078125 -118.75 C 14.078125 -129.695312 16.972656 -139.941406 22.765625 -149.484375 C 28.554688 -159.035156 36.457031 -166.46875 46.46875 -171.78125 L 304.140625 -305.546875 L 37.546875 -195.25 C 34.734375 -194 31.914062 -193.609375 29.09375 -194.078125 C 26.28125 -194.546875 23.78125 -195.5625 21.59375 -197.125 C 19.40625 -198.695312 17.601562 -200.734375 16.1875 -203.234375 C 14.78125 -205.734375 14.078125 -208.550781 14.078125 -211.6875 L 14.078125 -328.546875 Z M 333.71875 -312.125 L 118.28125 -71.34375 C 113.269531 -65.707031 109.828125 -60.617188 107.953125 -56.078125 C 106.078125 -51.546875 107.484375 -47.09375 112.171875 -42.71875 C 115.304688 -40.207031 118.125 -38.953125 120.625 -38.953125 C 123.75 -38.953125 126.71875 -40.203125 129.53125 -42.703125 C 132.351562 -45.210938 135.015625 -48.03125 137.515625 -51.15625 Z M 333.71875 -312.125 "/></g></g></g><g fill="#00bc7d" fill-opacity="1"><g transform="translate(4.193013, 704.353371)"><g><path d="M 341.6875 -149.25 C 341.6875 -141.425781 340.125 -134.617188 337 -128.828125 C 333.875 -123.046875 329.882812 -118.351562 325.03125 -114.75 C 320.175781 -111.15625 314.851562 -108.5 309.0625 -106.78125 C 303.28125 -105.0625 297.570312 -104.203125 291.9375 -104.203125 C 285.363281 -104.203125 279.734375 -105.140625 275.046875 -107.015625 L 122.96875 -171.3125 L 327.609375 -56.328125 C 331.679688 -54.128906 335.046875 -51.148438 337.703125 -47.390625 C 340.359375 -43.640625 341.6875 -39.578125 341.6875 -35.203125 L 341.6875 -0.46875 L 164.28125 -0.46875 C 158.019531 -0.46875 152.304688 -2.03125 147.140625 -5.15625 C 141.984375 -8.289062 137.523438 -12.515625 133.765625 -17.828125 L 69.46875 -105.140625 L 111.703125 -25.34375 C 114.835938 -19.707031 114.757812 -14.148438 111.46875 -8.671875 C 108.1875 -3.203125 103.414062 -0.46875 97.15625 -0.46875 L 14.078125 -0.46875 L 14.078125 -328.546875 L 292.40625 -328.546875 C 299.289062 -328.546875 305.707031 -327.296875 311.65625 -324.796875 C 317.601562 -322.296875 322.84375 -318.773438 327.375 -314.234375 C 331.914062 -309.703125 335.4375 -304.460938 337.9375 -298.515625 C 340.4375 -292.566406 341.6875 -286.148438 341.6875 -279.265625 Z M 284.4375 -166.15625 C 288.8125 -163.96875 292.566406 -162.875 295.703125 -162.875 C 300.703125 -162.875 304.457031 -165.21875 306.96875 -169.90625 C 309.15625 -173.976562 309.070312 -177.578125 306.71875 -180.703125 C 304.375 -183.828125 301.484375 -186.175781 298.046875 -187.75 L 70.40625 -281.140625 Z M 284.4375 -166.15625 "/></g></g></g><g fill="#ff751f" fill-opacity="1"><g transform="translate(359.975768, 704.353371)"><g><path d="M 341.6875 -328.546875 L 341.6875 -222.46875 C 341.6875 -212.457031 338.320312 -205.335938 331.59375 -201.109375 C 324.875 -196.890625 317.289062 -194.78125 308.84375 -194.78125 C 301.957031 -194.78125 295.226562 -196.03125 288.65625 -198.53125 L 42.25 -297.109375 L 196.1875 -215.90625 C 220.59375 -202.757812 233.1875 -188.519531 233.96875 -173.1875 C 234.757812 -157.851562 222.164062 -142.207031 196.1875 -126.25 L 52.5625 -37.078125 L 316.8125 -165.21875 C 319.007812 -166.46875 321.359375 -167.09375 323.859375 -167.09375 C 328.546875 -167.09375 332.6875 -165.367188 336.28125 -161.921875 C 339.882812 -158.484375 341.6875 -154.257812 341.6875 -149.25 L 341.6875 0 L 14.078125 0 L 14.078125 -328.546875 Z M 341.6875 -328.546875 "/></g></g></g></g></g><g transform="matrix(1, 0, 0, 1, 46, 1056)"><g clip-path="url(#35cefb7661)"><g fill="#ffffff" fill-opacity="1"><g transform="translate(1.563675, 101.871547)"><g><path d="M 10.046875 -79.84375 L 65.609375 -79.84375 L 65.609375 -64.28125 L 30.640625 -64.28125 L 30.640625 -49.40625 L 63.53125 -49.40625 L 63.53125 -33.84375 L 30.640625 -33.84375 L 30.640625 -15.5625 L 66.796875 -15.5625 L 66.796875 0 L 10.046875 0 Z M 10.046875 -79.84375 "/></g></g></g><g fill="#ffffff" fill-opacity="1"><g transform="translate(73.634324, 101.871547)"><g><path d="M 65.609375 -77.328125 L 65.609375 -60.421875 C 61.222656 -62.390625 56.941406 -63.867188 52.765625 -64.859375 C 48.597656 -65.859375 44.664062 -66.359375 40.96875 -66.359375 C 36.039062 -66.359375 32.398438 -65.679688 30.046875 -64.328125 C 27.691406 -62.972656 26.515625 -60.867188 26.515625 -58.015625 C 26.515625 -55.878906 27.304688 -54.210938 28.890625 -53.015625 C 30.484375 -51.828125 33.363281 -50.800781 37.53125 -49.9375 L 46.3125 -48.1875 C 55.1875 -46.394531 61.492188 -43.679688 65.234375 -40.046875 C 68.984375 -36.410156 70.859375 -31.242188 70.859375 -24.546875 C 70.859375 -15.742188 68.242188 -9.191406 63.015625 -4.890625 C 57.796875 -0.597656 49.820312 1.546875 39.09375 1.546875 C 34.03125 1.546875 28.945312 1.0625 23.84375 0.09375 C 18.75 -0.863281 13.65625 -2.285156 8.5625 -4.171875 L 8.5625 -21.546875 C 13.65625 -18.835938 18.582031 -16.796875 23.34375 -15.421875 C 28.101562 -14.054688 32.691406 -13.375 37.109375 -13.375 C 41.597656 -13.375 45.035156 -14.117188 47.421875 -15.609375 C 49.816406 -17.109375 51.015625 -19.25 51.015625 -22.03125 C 51.015625 -24.53125 50.203125 -26.457031 48.578125 -27.8125 C 46.953125 -29.164062 43.71875 -30.375 38.875 -31.4375 L 30.90625 -33.203125 C 22.925781 -34.921875 17.085938 -37.648438 13.390625 -41.390625 C 9.703125 -45.128906 7.859375 -50.171875 7.859375 -56.515625 C 7.859375 -64.472656 10.425781 -70.585938 15.5625 -74.859375 C 20.695312 -79.140625 28.078125 -81.28125 37.703125 -81.28125 C 42.085938 -81.28125 46.597656 -80.945312 51.234375 -80.28125 C 55.867188 -79.625 60.660156 -78.640625 65.609375 -77.328125 Z M 65.609375 -77.328125 "/></g></g></g><g fill="#ffffff" fill-opacity="1"><g transform="translate(149.768915, 101.871547)"><g><path d="M 0.53125 -79.84375 L 74.109375 -79.84375 L 74.109375 -64.28125 L 47.640625 -64.28125 L 47.640625 0 L 27.0625 0 L 27.0625 -64.28125 L 0.53125 -64.28125 Z M 0.53125 -79.84375 "/></g></g></g><g fill="#ffffff" fill-opacity="1"><g transform="translate(221.732619, 101.871547)"><g><path d="M 30.640625 -64.28125 L 30.640625 -15.5625 L 38.015625 -15.5625 C 46.429688 -15.5625 52.859375 -17.644531 57.296875 -21.8125 C 61.734375 -25.988281 63.953125 -32.050781 63.953125 -40 C 63.953125 -47.914062 61.738281 -53.941406 57.3125 -58.078125 C 52.894531 -62.210938 46.460938 -64.28125 38.015625 -64.28125 Z M 10.046875 -79.84375 L 31.765625 -79.84375 C 43.878906 -79.84375 52.90625 -78.976562 58.84375 -77.25 C 64.78125 -75.519531 69.867188 -72.585938 74.109375 -68.453125 C 77.859375 -64.847656 80.640625 -60.691406 82.453125 -55.984375 C 84.273438 -51.273438 85.1875 -45.945312 85.1875 -40 C 85.1875 -33.976562 84.273438 -28.601562 82.453125 -23.875 C 80.640625 -19.15625 77.859375 -14.992188 74.109375 -11.390625 C 69.835938 -7.253906 64.707031 -4.320312 58.71875 -2.59375 C 52.726562 -0.863281 43.742188 0 31.765625 0 L 10.046875 0 Z M 10.046875 -79.84375 "/></g></g></g><g fill="#ffffff" fill-opacity="1"><g transform="translate(309.898588, 101.871547)"><g><path d="M 11.171875 -20.6875 L 30.421875 -20.6875 L 30.421875 0 L 11.171875 0 Z M 11.171875 -20.6875 "/></g></g></g></g></g><g transform="matrix(1, 0, 0, 1, 742, 339)"><g clip-path="url(#61d52f2b72)"><g fill="#ff751f" fill-opacity="1"><g transform="translate(3.30632, 352.329201)"><g><path d="M 14.078125 -329.015625 L 168.96875 -329.015625 C 173.976562 -329.015625 178.671875 -328.078125 183.046875 -326.203125 C 187.429688 -324.328125 191.265625 -321.742188 194.546875 -318.453125 C 197.835938 -315.171875 200.34375 -311.257812 202.0625 -306.71875 C 203.78125 -302.1875 204.484375 -297.414062 204.171875 -292.40625 L 196.1875 -159.578125 L 223.890625 -298.984375 C 225.765625 -308.054688 229.828125 -315.328125 236.078125 -320.796875 C 242.335938 -326.273438 250.007812 -329.015625 259.09375 -329.015625 L 344.984375 -329.015625 L 344.984375 0 L 201.359375 0 C 201.359375 -4.695312 201.59375 -10.09375 202.0625 -16.1875 C 202.53125 -22.289062 203.3125 -28.628906 204.40625 -35.203125 C 205.5 -41.773438 207.0625 -48.34375 209.09375 -54.90625 C 211.132812 -61.476562 213.5625 -67.582031 216.375 -73.21875 L 317.28125 -262.375 L 214.5 -106.078125 C 209.488281 -98.566406 204.476562 -93.085938 199.46875 -89.640625 C 194.46875 -86.203125 189.617188 -84.484375 184.921875 -84.484375 C 177.722656 -84.484375 171.070312 -87.691406 164.96875 -94.109375 C 158.875 -100.523438 154.109375 -108.582031 150.671875 -118.28125 L 86.359375 -289.125 L 142.21875 -89.640625 C 146.59375 -73.992188 149.71875 -59.363281 151.59375 -45.75 C 153.476562 -32.144531 154.265625 -16.894531 153.953125 0 L 14.078125 0 Z M 14.078125 -329.015625 "/></g></g></g><g fill="#00bc7d" fill-opacity="1"><g transform="translate(362.370973, 352.329201)"><g><path d="M 340.28125 -190.5625 C 340.28125 -171.78125 335.820312 -154.175781 326.90625 -137.75 C 317.988281 -121.320312 305.238281 -108.257812 288.65625 -98.5625 L 285.375 -96.6875 C 270.351562 -88.238281 254.550781 -84.015625 237.96875 -84.015625 C 220.132812 -84.015625 203.394531 -88.707031 187.75 -98.09375 C 172.101562 -107.476562 160.210938 -120.9375 152.078125 -138.46875 L 78.390625 -295.234375 L 174.125 -28.15625 C 175.382812 -25.03125 175.78125 -21.820312 175.3125 -18.53125 C 174.84375 -15.25 173.820312 -12.195312 172.25 -9.375 C 170.6875 -6.5625 168.492188 -4.296875 165.671875 -2.578125 C 162.859375 -0.859375 159.734375 0 156.296875 0 L 14.078125 0 L 14.078125 -328.546875 L 340.28125 -328.546875 Z M 291.9375 -143.15625 C 295.382812 -146.90625 296.398438 -150.65625 294.984375 -154.40625 C 293.578125 -158.164062 291.15625 -161.457031 287.71875 -164.28125 L 109.828125 -306.96875 L 267.53125 -146.90625 C 269.726562 -144.40625 272.15625 -142.375 274.8125 -140.8125 C 277.46875 -139.25 280.046875 -138.46875 282.546875 -138.46875 C 285.992188 -138.46875 289.125 -140.03125 291.9375 -143.15625 Z M 291.9375 -143.15625 "/></g></g></g><g fill="#00bc7d" fill-opacity="1"><g transform="translate(1.894563, 704.353371)"><g><path d="M 14.078125 -328.546875 L 191.96875 -328.546875 C 196.34375 -328.546875 200.171875 -327.21875 203.453125 -324.5625 C 206.742188 -321.90625 209.015625 -318.539062 210.265625 -314.46875 L 285.375 -39.421875 L 232.328125 -304.609375 C 231.078125 -310.867188 232.328125 -316.421875 236.078125 -321.265625 C 239.835938 -326.117188 244.847656 -328.546875 251.109375 -328.546875 L 344.984375 -328.546875 L 344.984375 -40.828125 C 344.984375 -29.253906 340.914062 -19.476562 332.78125 -11.5 C 324.644531 -3.519531 314.941406 0.46875 303.671875 0.46875 L 155.828125 0.46875 C 149.878906 0.46875 144.398438 -0.859375 139.390625 -3.515625 C 134.390625 -6.179688 130.242188 -9.703125 126.953125 -14.078125 C 123.671875 -18.460938 121.40625 -23.46875 120.15625 -29.09375 C 118.90625 -34.726562 119.0625 -40.519531 120.625 -46.46875 L 181.171875 -277.390625 L 93.875 -27.21875 C 91.050781 -19.082031 86.195312 -12.429688 79.3125 -7.265625 C 72.4375 -2.109375 64.617188 0.46875 55.859375 0.46875 L 14.078125 0.46875 Z M 14.078125 -328.546875 "/></g></g></g><g fill="#ff751f" fill-opacity="1"><g transform="translate(360.959216, 704.353371)"><g><path d="M 14.078125 -328.546875 L 343.109375 -328.546875 L 343.109375 0 L 307.4375 0 C 300.863281 0 294.835938 -1.953125 289.359375 -5.859375 C 283.878906 -9.773438 279.890625 -15.019531 277.390625 -21.59375 L 180.703125 -280.203125 L 248.296875 -24.875 C 249.859375 -18.613281 248.757812 -12.898438 245 -7.734375 C 241.25 -2.578125 236.242188 0 229.984375 0 L 102.796875 0 C 99.347656 0 96.132812 -0.78125 93.15625 -2.34375 C 90.1875 -3.90625 87.765625 -6.015625 85.890625 -8.671875 C 84.015625 -11.335938 82.765625 -14.234375 82.140625 -17.359375 C 81.515625 -20.492188 81.828125 -23.625 83.078125 -26.75 L 160.046875 -234.6875 L 48.8125 -10.328125 C 47.25 -7.515625 45.210938 -5.085938 42.703125 -3.046875 C 40.203125 -1.015625 37.234375 0 33.796875 0 L 14.078125 0 Z M 14.078125 -328.546875 "/></g></g></g></g></g><g transform="matrix(1, 0, 0, 1, 1118, 1056)"><g clip-path="url(#5edd6ae998)"><g fill="#ffffff" fill-opacity="1"><g transform="translate(1.393126, 101.871547)"><g/></g></g><g fill="#ffffff" fill-opacity="1"><g transform="translate(36.797224, 101.871547)"><g><path d="M 31.546875 -15.140625 L 66.6875 -15.140625 L 66.6875 0 L 8.65625 0 L 8.65625 -15.140625 L 37.8125 -40.859375 C 40.40625 -43.210938 42.328125 -45.507812 43.578125 -47.75 C 44.828125 -50 45.453125 -52.335938 45.453125 -54.765625 C 45.453125 -58.503906 44.191406 -61.515625 41.671875 -63.796875 C 39.160156 -66.078125 35.820312 -67.21875 31.65625 -67.21875 C 28.445312 -67.21875 24.9375 -66.53125 21.125 -65.15625 C 17.3125 -63.78125 13.226562 -61.738281 8.875 -59.03125 L 8.875 -76.578125 C 13.507812 -78.109375 18.085938 -79.273438 22.609375 -80.078125 C 27.140625 -80.878906 31.582031 -81.28125 35.9375 -81.28125 C 45.488281 -81.28125 52.910156 -79.175781 58.203125 -74.96875 C 63.492188 -70.757812 66.140625 -64.894531 66.140625 -57.375 C 66.140625 -53.03125 65.015625 -48.976562 62.765625 -45.21875 C 60.523438 -41.457031 55.804688 -36.421875 48.609375 -30.109375 Z M 31.546875 -15.140625 "/></g></g></g><g fill="#ffffff" fill-opacity="1"><g transform="translate(110.25817, 101.871547)"><g><path d="M 50.375 -40 C 50.375 -49.976562 49.4375 -57.007812 47.5625 -61.09375 C 45.695312 -65.175781 42.550781 -67.21875 38.125 -67.21875 C 33.707031 -67.21875 30.550781 -65.175781 28.65625 -61.09375 C 26.769531 -57.007812 25.828125 -49.976562 25.828125 -40 C 25.828125 -29.90625 26.769531 -22.789062 28.65625 -18.65625 C 30.550781 -14.519531 33.707031 -12.453125 38.125 -12.453125 C 42.507812 -12.453125 45.644531 -14.519531 47.53125 -18.65625 C 49.425781 -22.789062 50.375 -29.90625 50.375 -40 Z M 70.953125 -39.84375 C 70.953125 -26.613281 68.097656 -16.40625 62.390625 -9.21875 C 56.691406 -2.039062 48.601562 1.546875 38.125 1.546875 C 27.613281 1.546875 19.503906 -2.039062 13.796875 -9.21875 C 8.085938 -16.40625 5.234375 -26.613281 5.234375 -39.84375 C 5.234375 -53.101562 8.085938 -63.320312 13.796875 -70.5 C 19.503906 -77.6875 27.613281 -81.28125 38.125 -81.28125 C 48.601562 -81.28125 56.691406 -77.6875 62.390625 -70.5 C 68.097656 -63.320312 70.953125 -53.101562 70.953125 -39.84375 Z M 70.953125 -39.84375 "/></g></g></g><g fill="#ffffff" fill-opacity="1"><g transform="translate(183.719115, 101.871547)"><g><path d="M 31.546875 -15.140625 L 66.6875 -15.140625 L 66.6875 0 L 8.65625 0 L 8.65625 -15.140625 L 37.8125 -40.859375 C 40.40625 -43.210938 42.328125 -45.507812 43.578125 -47.75 C 44.828125 -50 45.453125 -52.335938 45.453125 -54.765625 C 45.453125 -58.503906 44.191406 -61.515625 41.671875 -63.796875 C 39.160156 -66.078125 35.820312 -67.21875 31.65625 -67.21875 C 28.445312 -67.21875 24.9375 -66.53125 21.125 -65.15625 C 17.3125 -63.78125 13.226562 -61.738281 8.875 -59.03125 L 8.875 -76.578125 C 13.507812 -78.109375 18.085938 -79.273438 22.609375 -80.078125 C 27.140625 -80.878906 31.582031 -81.28125 35.9375 -81.28125 C 45.488281 -81.28125 52.910156 -79.175781 58.203125 -74.96875 C 63.492188 -70.757812 66.140625 -64.894531 66.140625 -57.375 C 66.140625 -53.03125 65.015625 -48.976562 62.765625 -45.21875 C 60.523438 -41.457031 55.804688 -36.421875 48.609375 -30.109375 Z M 31.546875 -15.140625 "/></g></g></g><g fill="#ffffff" fill-opacity="1"><g transform="translate(257.180061, 101.871547)"><g><path d="M 39.625 -39.40625 C 36.019531 -39.40625 33.316406 -38.238281 31.515625 -35.90625 C 29.722656 -33.570312 28.828125 -30.070312 28.828125 -25.40625 C 28.828125 -20.726562 29.722656 -17.222656 31.515625 -14.890625 C 33.316406 -12.554688 36.019531 -11.390625 39.625 -11.390625 C 43.257812 -11.390625 45.976562 -12.554688 47.78125 -14.890625 C 49.582031 -17.222656 50.484375 -20.726562 50.484375 -25.40625 C 50.484375 -30.070312 49.582031 -33.570312 47.78125 -35.90625 C 45.976562 -38.238281 43.257812 -39.40625 39.625 -39.40625 Z M 65.078125 -77.75 L 65.078125 -63 C 61.691406 -64.601562 58.5 -65.785156 55.5 -66.546875 C 52.507812 -67.316406 49.585938 -67.703125 46.734375 -67.703125 C 40.597656 -67.703125 35.816406 -66 32.390625 -62.59375 C 28.972656 -59.1875 26.984375 -54.132812 26.421875 -47.4375 C 28.773438 -49.175781 31.320312 -50.484375 34.0625 -51.359375 C 36.8125 -52.234375 39.804688 -52.671875 43.046875 -52.671875 C 51.210938 -52.671875 57.796875 -50.28125 62.796875 -45.5 C 67.804688 -40.726562 70.3125 -34.472656 70.3125 -26.734375 C 70.3125 -18.179688 67.515625 -11.328125 61.921875 -6.171875 C 56.328125 -1.023438 48.820312 1.546875 39.40625 1.546875 C 29.03125 1.546875 21 -1.953125 15.3125 -8.953125 C 9.632812 -15.960938 6.796875 -25.898438 6.796875 -38.765625 C 6.796875 -51.953125 10.117188 -62.316406 16.765625 -69.859375 C 23.410156 -77.398438 32.523438 -81.171875 44.109375 -81.171875 C 47.785156 -81.171875 51.351562 -80.882812 54.8125 -80.3125 C 58.269531 -79.75 61.691406 -78.894531 65.078125 -77.75 Z M 65.078125 -77.75 "/></g></g></g></g></g></svg>